<?xml version="1.0" encoding="UTF-8" standalone="no"?>
<!-- Created with Inkscape (http://www.inkscape.org/) -->
<svg id="svg6962" xmlns:rdf="http://www.w3.org/1999/02/22-rdf-syntax-ns#" xmlns="http://www.w3.org/2000/svg" height="69.248" width="103.76" version="1.1" xmlns:cc="http://creativecommons.org/ns#" xmlns:xlink="http://www.w3.org/1999/xlink" viewBox="0 0 103.76329 69.248161" xmlns:dc="http://purl.org/dc/elements/1.1/">
 <defs id="defs6964">
  <linearGradient id="linearGradient6136" y2="-3799.8" xlink:href="#linearGradient9267-92" gradientUnits="userSpaceOnUse" x2="-3679.2" gradientTransform="matrix(.66816 0 0 .66816 2780.2 3082.8)" y1="-3743.8" x1="-3677.2"/>
  <linearGradient id="linearGradient9267-92">
   <stop id="stop9269-1" stop-color="#f4e63e" offset="0"/>
   <stop id="stop9277-2" stop-color="#eadd0d" offset=".28988"/>
   <stop id="stop9275-0" stop-color="#f5faad" offset=".52433"/>
   <stop id="stop9652-5" stop-color="#ddf553" offset=".91879"/>
   <stop id="stop9271-7" stop-color="#f2b815" offset="1"/>
  </linearGradient>
  <linearGradient id="linearGradient6138" y2="-3175.3" xlink:href="#linearGradient9267-92" gradientUnits="userSpaceOnUse" x2="-3662.8" gradientTransform="matrix(.66816 0 0 .66816 2882.4 2622.1)" y1="-3120.8" x1="-3662.9"/>
  <linearGradient id="linearGradient6140" y2="-3033.3" xlink:href="#linearGradient9267-92" gradientUnits="userSpaceOnUse" x2="-3758" gradientTransform="matrix(.66816 0 0 .66816 2990.1 2498.6)" y1="-2985.7" x1="-3757.1"/>
  <linearGradient id="linearGradient6142" y2="-2631.9" xlink:href="#linearGradient9267-92" gradientUnits="userSpaceOnUse" x2="-3999.4" gradientTransform="matrix(.66816 0 0 .66816 3193.6 2233)" y1="-2582.8" x1="-4000.7"/>
  <linearGradient id="linearGradient6144" y2="-4005" xlink:href="#linearGradient9267-92" gradientUnits="userSpaceOnUse" x2="-2604.4" gradientTransform="matrix(.66816 0 0 .66816 2123.2 3259.4)" y1="-3960.6" x1="-2598.2"/>
  <linearGradient id="linearGradient6146" y2="-3953.3" xlink:href="#linearGradient9267-92" gradientUnits="userSpaceOnUse" x2="-2598.9" gradientTransform="matrix(.66816 0 0 .66816 2123.2 3259.4)" y1="-3911.6" x1="-2595.9"/>
  <linearGradient id="linearGradient6148" y2="-2763.7" xlink:href="#linearGradient9267-92" gradientUnits="userSpaceOnUse" x2="-3892.8" gradientTransform="matrix(.66816 0 0 .66816 3106.3 2352.6)" y1="-2715" x1="-3895.2"/>
  <linearGradient id="linearGradient6150" y2="-3242.2" xlink:href="#linearGradient9267-92" gradientUnits="userSpaceOnUse" x2="-3455.7" gradientTransform="matrix(.66816 0 0 .66816 2771.1 2739.5)" y1="-3191.2" x1="-3458"/>
  <linearGradient id="linearGradient6152" y2="-3266.2" xlink:href="#linearGradient9267-92" gradientUnits="userSpaceOnUse" x2="-3388.6" gradientTransform="matrix(.66816 0 0 .66816 2755 2755.6)" y1="-3215.4" x1="-3390.2"/>
 </defs>
 <metadata id="metadata6967">
  <rdf:RDF>
   <cc:Work rdf:about="">
    <dc:format>image/svg+xml</dc:format>
    <dc:type rdf:resource="http://purl.org/dc/dcmitype/StillImage"/>
    <dc:title/>
   </cc:Work>
  </rdf:RDF>
 </metadata>
 <g id="layer1" transform="translate(-392.09 -444.79)">
  <rect id="rect6090" style="color:#000000" transform="matrix(.98914 -.14698 .18425 .98288 0 0)" height="48.975" width="48.991" y="507.85" x="309.2" fill="#204a87"/>
  <rect id="rect6092" style="color:#000000" transform="matrix(.13193 -.99126 .99485 .10138 0 0)" height="37.098" width="66.065" y="488.99" x="-464.76" fill="#00aeef"/>
  <path id="path6094" d="m395.29 482.18-3.2044-24.441 27.756-3.2225 2.6027 13.898 3.4794-10.232 8.5912-0.13766 0.60408-5.8743 23.414 0.93842-0.0154 4.5865 15.976 0.97363-2.3511 24.061-23.051-1.4128 0.38324-5.1741-6.1774-0.45014 2.2065 6.6134-26.488-0.39192-0.20634-2.7622z" fill="#1586ce"/>
  <path id="path6096" d="m432.48 506.35 2.6892-23.939 18.719 1.9203-0.28566 2.3082 16.565-0.70815-0.0242-1.6996 25.182-0.49503 0.52675 23.516-23.06 0.98657s-3.8656 2.1263-9.4697 2.2977c-13.814 0.42255-12.351-10.769-12.351-10.769l-6.7434-0.30898-1.1158 7.7499z" fill="#2b5dac"/>
  <path id="path6098" d="m472.19 450.11 8.7653-2.1226 5.1855 17.507 3.3485 0.0335 4.9483 12.548s-0.92795 5.5817-5.8869 6.1397c-3.0275 0.89825-9.8641-0.12574-9.8641-0.12574l-3.8849-12.388c0-3.114 1.6197-4.3984 1.9494-4.1487z" fill="#1586ce"/>
  <g id="text6100" style="color:#000000;text-indent:0;block-progression:tb;text-decoration-line:none;text-transform:none" transform="matrix(.59509 -.070463 .079143 .52983 169.99 192.84)" fill="url(#linearGradient6136)">
   <path id="path7510" fill="url(#linearGradient6136)" d="m306.65 546.04h10.359l7.1879 18.768 7.2349-18.768h10.336v35.07h-7.7047v-25.651l-7.2584 18.909h-5.1678l-7.2584-18.909v25.651h-7.7282v-35.07z"/>
  </g>
  <g id="text6104" style="color:#000000;text-indent:0;block-progression:tb;text-decoration-line:none;text-transform:none" transform="matrix(.60033 0 0 .53449 169.99 192.84)" fill="url(#linearGradient6138)">
   <path id="path7513" fill="url(#linearGradient6138)" d="m441.03 530.28h-12.732l-2.0201 6.3892h-8.1745l11.698-35.07h9.7013l11.698 35.07h-8.198l-1.9732-6.3892zm-10.711-6.5067h8.6443l-4.2986-13.953-4.3456 13.953z"/>
  </g>
  <g id="text6108" style="color:#000000;text-indent:0;block-progression:tb;text-decoration-line:none;text-transform:none" transform="matrix(.59980 .022477 -.025246 .53402 169.99 192.84)" fill="url(#linearGradient6140)">
   <path id="path7516" fill="url(#linearGradient6140)" d="m465.6 470.2h29.08v6.8356h-10.453v28.235h-8.151v-28.235h-10.476v-6.8356z"/>
  </g>
  <g id="text6112" style="color:#000000;text-indent:0;block-progression:tb;text-decoration-line:none;text-transform:none" transform="matrix(.59846 .027076 -.041778 .53428 169.99 192.84)" fill="url(#linearGradient6142)">
   <path id="path7519" fill="url(#linearGradient6142)" d="m507.99 474.45h8.151v13.366h12.003v-13.366h8.1275v35.07h-8.1275v-14.869h-12.003v14.869h-8.151v-35.07z"/>
  </g>
  <g id="text6116" style="color:#000000;text-indent:0;block-progression:tb;text-decoration-line:none;text-transform:none" transform="matrix(.58396 -.12018 .13902 .52087 169.99 192.84)" fill="url(#linearGradient6144)">
   <path id="path7522" fill="url(#linearGradient6144)" d="m383.54 592.66h5.8829v20.462h-5.8829v-20.462zm0-7.9657h5.8829v5.3348h-5.8829v-5.3348z"/>
  </g>
  <g id="text6120" style="color:#000000;text-indent:0;block-progression:tb;text-decoration-line:none;text-transform:none" transform="matrix(.58396 -.12018 .13902 .52087 169.99 192.84)" fill="url(#linearGradient6146)">
   <path id="path7525" fill="url(#linearGradient6146)" d="m395.81 618.76v5.7733q-2.0097-1.0048-3.9463-1.5164-1.9183-0.51156-3.6357-0.51156-2.2655 0-3.3617 0.69426-1.0779 0.69426-1.0779 2.1558 0 1.0962 0.7308 1.7174 0.73079 0.6029 2.6674 1.0414l2.6857 0.60291q4.1107 0.91349 5.8281 2.777t1.7174 5.2983q0 4.5127-2.4116 6.7233-2.3934 2.1924-7.3445 2.1924-2.3386 0-4.6954-0.49329-2.3386-0.49329-4.6954-1.4616v-5.9377q2.3568 1.3885 4.5492 2.101 2.1924 0.69426 4.2386 0.69426 2.0645 0 3.1607-0.76734 1.1145-0.76734 1.1145-2.1924 0-1.2789-0.74907-1.9731-0.74906-0.69426-2.9963-1.2424l-2.4482-0.6029q-3.6722-0.87696-5.3896-2.7953-1.6991-1.9183-1.6991-5.1704 0-4.0742 2.3751-6.2666t6.7964-2.1924q2.028 0 4.1655 0.34713 2.1376 0.32886 4.4213 1.0048z"/>
  </g>
  <g id="text6124" style="color:#000000;text-indent:0;block-progression:tb;text-decoration-line:none;text-transform:none" transform="matrix(.59791 .048015 -.053930 .53233 169.99 192.84)" fill="url(#linearGradient6148)">
   <path id="path7528" fill="url(#linearGradient6148)" d="m492.52 505.01h21.963v6.8356h-13.812v6.5302h12.99v6.8356h-12.99v14.869h-8.151v-35.07z"/>
  </g>
  <g id="text6128" style="color:#000000;text-indent:0;block-progression:tb;text-decoration-line:none;text-transform:none" transform="matrix(.59981 -.022188 .024922 .53403 169.99 192.84)" fill="url(#linearGradient6150)">
   <path id="path7531" fill="url(#linearGradient6150)" d="m448.19 572.8h8.151v21.023q0 4.3456 1.2685 6.2248 1.2919 1.8557 4.1812 1.8557 2.9127 0 4.1812-1.8557 1.2919-1.8792 1.2919-6.2248v-21.023h8.151v21.023q0 7.4463-3.3825 11.087-3.359 3.6409-10.242 3.6409-6.8825 0-10.242-3.6409-3.359-3.6409-3.359-11.087v-21.023z"/>
  </g>
  <g id="text6132" style="color:#000000;text-indent:0;block-progression:tb;text-decoration-line:none;text-transform:none" transform="matrix(.59966 -.025309 .028426 .53389 169.99 192.84)" fill="url(#linearGradient6152)">
   <path id="path7534" fill="url(#linearGradient6152)" d="m479.2 573.5h9.0906l11.487 24.054v-24.054h7.7047v35.07h-9.0906l-11.463-24.054v24.054h-7.7282v-35.07z"/>
  </g>
 </g>
</svg>
